HIERARCHY
ROOT Hips
{
  OFFSET 172.444 101.5 -182.9
  CHANNELS 6 Xposition Yposition Zposition Zrotation Xrotation Yrotation
  JOINT ToSpine
  {
    OFFSET -0.0105055 1.38907 -7.13956
    CHANNELS 3 Zrotation Xrotation Yrotation
    JOINT Spine
    {
      OFFSET 0.0105055 10 1
      CHANNELS 3 Zrotation Xrotation Yrotation
      JOINT Spine1
      {
        OFFSET 0 12 1.60637
        CHANNELS 3 Zrotation Xrotation Yrotation
        JOINT Neck
        {
          OFFSET 0 27 2.26658
          CHANNELS 3 Zrotation Xrotation Yrotation
          JOINT Head
          {
            OFFSET 0 9 2.12705
            CHANNELS 3 Zrotation Xrotation Yrotation
            End Site
            {
              OFFSET 0 11 2
            }
          }
        }
        JOINT LeftShoulder
        {
          OFFSET 8 19.6109 2.86452
          CHANNELS 3 Zrotation Xrotation Yrotation
          JOINT LeftArm
          {
            OFFSET 12 1 0.681055
            CHANNELS 3 Zrotation Xrotation Yrotation
            JOINT LeftForeArm
            {
              OFFSET 19 0 -1.52608
              CHANNELS 3 Zrotation Xrotation Yrotation
              JOINT LeftHand
              {
                OFFSET 23 0 0
                CHANNELS 3 Zrotation Xrotation Yrotation
                End Site
                {
                  OFFSET 10 0 0
                }
              }
            }
          }
        }
        JOINT RightShoulder
        {
          OFFSET -8 19.6109 2.86452
          CHANNELS 3 Zrotation Xrotation Yrotation
          JOINT RightArm
          {
            OFFSET -12 1 0.681055
            CHANNELS 3 Zrotation Xrotation Yrotation
            JOINT RightForeArm
            {
              OFFSET -19 0 -1.52608
              CHANNELS 3 Zrotation Xrotation Yrotation
              JOINT RightHand
              {
                OFFSET -23 0 0
                CHANNELS 3 Zrotation Xrotation Yrotation
                End Site
                {
                  OFFSET -10 0 0
                }
              }
            }
          }
        }
      }
    }
  }
  JOINT LeftUpLeg
  {
    OFFSET 9 -7.17245 0
    CHANNELS 3 Zrotation Xrotation Yrotation
    JOINT LeftLeg
    {
      OFFSET 0 -44.1113 0
      CHANNELS 3 Zrotation Xrotation Yrotation
      JOINT LeftFoot
      {
        OFFSET 0 -36.1829 0
        CHANNELS 3 Zrotation Xrotation Yrotation
        JOINT LeftToeBase
        {
          OFFSET 0 -4.84184 13
          CHANNELS 3 Zrotation Xrotation Yrotation
          End Site
          {
            OFFSET 0 1 6
          }
        }
      }
    }
  }
  JOINT RightUpLeg
  {
    OFFSET -9 -7.17245 0
    CHANNELS 3 Zrotation Xrotation Yrotation
    JOINT RightLeg
    {
      OFFSET 0 -44.0551 0
      CHANNELS 3 Zrotation Xrotation Yrotation
      JOINT RightFoot
      {
        OFFSET 0 -36.1469 0
        CHANNELS 3 Zrotation Xrotation Yrotation
        JOINT RightToeBase
        {
          OFFSET 0 -4.92256 13
          CHANNELS 3 Zrotation Xrotation Yrotation
          End Site
          {
            OFFSET 0 1 6
          }
        }
      }
    }
  }
}
MOTION
Frames:	20
Frame Time:	0.0333333
172.444 101.5 -182.9 0.712843 -2.7278 47.6386 0 0 0 -0.124275 3.90694 1.13772 -8.72257 1.20036 2.68784 16.9448 0.920877 -12.5598 0.217636 -2.11733 -7.29455 -25.592 2.89615 -5.59521 -45.2327 22.0561 -9.17052 -5.10967 -16.3 -10.2387 -10.2072 0.256412 -2.87042 24.7878 5.41862 13.8554 56.6593 14.6956 -0.138912 3.2914 -2.83303 12.0043 3.78651 0.100242 3.03184 3.76717 -0.184462 8.4996 -2.63065 13.5799 -18.0222 9.06285 -10.1901 0.809726 -0.0637069 -1.7301 0.78241 1.23328 1.68954 -6.36114 0.708615 6.99319 -12.5307 -9.83061 -4.00203 -0.344311 2.70427 -9.41137 -4.53371 
172.134 101.239 -182.682 0.153619 -2.67755 47.6601 0 0 0 -1.74784 4.36797 1.45196 -7.67112 0.713048 2.74148 17.9168 -1.13698 -12.4675 0.084171 -1.28445 -7.1202 -25.8107 2.90255 -5.55552 -44.9922 21.4533 -8.44706 -4.9004 -15.8625 -10.2313 -10.057 0.372815 -4.23509 24.1719 5.20644 13.5025 56.9449 14.8134 -0.205494 3.01641 -2.02277 12.2282 3.1531 0.161639 5.86775 4.8618 -1.69231 9.37763 -3.23972 15.9407 -18.9396 9.94432 -10.6369 0.928044 0.306491 -1.33503 -0.963908 1.54031 -0.621171 -5.92244 1.57951 10.6 -13.5053 -13.6121 -4.43653 -0.52976 3.47834 -12.7461 -5.20868 
171.74 101.188 -182.675 -0.591913 -2.87603 47.1481 0 0 0 -2.22642 5.31546 1.64888 -7.52214 -0.0186242 2.87062 18.5749 -2.69202 -11.9323 0.823729 -1.68848 -6.76211 -26.0093 2.92784 -5.58011 -44.263 21.4841 -7.6136 -4.9361 -16.3871 -10.5249 -10.5407 0.219945 -2.38401 23.8007 5.29053 13.9736 57.1652 14.5017 -0.072585 3.08274 -2.7728 12.4437 2.76282 0.119891 4.96854 6.14217 -3.13501 10.2318 -3.45046 18.0089 -18.9399 9.56384 -12.0358 1.01054 0.250888 -0.276291 -0.983672 1.5135 -3.48571 -7.54568 2.49899 15.279 -11.1199 -14.1417 -5.6558 -0.702105 3.39987 -12.4069 -5.05441 
171.386 101.191 -182.662 -1.20235 -3.30366 46.5644 0 0 0 -2.16519 6.7842 1.7671 -7.98028 -1.06457 3.03644 19.7579 -4.18047 -11.8621 0.906817 -1.99125 -6.59429 -25.7199 2.94638 -5.7169 -43.2756 22.6105 -8.13358 -5.08724 -17.4782 -7.96796 -10.4052 0.276154 -3.03219 24.4901 5.36416 13.8401 56.3079 14.5107 -0.184234 2.8368 -2.45515 12.9927 3.10305 0.140671 5.18995 7.35133 -3.89955 10.9128 -3.6649 19.2076 -19.0236 10.0728 -12.2564 1.08425 -0.0839627 -2.76473 1.21933 1.19437 -5.80161 -12.0295 2.8585 18.6873 -4.53707 -16.9446 -3.93105 -0.585781 3.95948 -14.9215 -6.33259 
171.005 101.224 -182.316 -2.45979 -3.77228 46.9028 0 0 0 -2.53194 6.68168 1.47809 -7.21834 -0.738007 2.64295 20.2927 -5.85393 -11.486 1.65964 -1.82175 -6.48564 -25.2831 2.97593 -5.93255 -43.2688 21.8781 -7.57357 -5.03042 -17.5807 -7.37886 -10.5895 0.26263 -2.83333 25.329 5.75545 14.6203 55.6333 13.8837 -0.446261 2.82185 -3.52269 13.4396 2.50151 0.108462 4.96463 9.49518 -5.38769 12.0301 -3.80562 21.0384 -20.3413 9.61871 -12.9646 1.09544 0.146228 -2.07825 -0.0502383 1.05322 -7.29706 -15.8396 3.22767 19.3463 -1.84892 -15.4897 -2.23268 -0.303689 4.3173 -16.4512 -5.28498 
170.649 101.244 -182.058 -3.63788 -3.95338 47.6083 0 0 0 -2.43819 6.49791 1.10188 -6.95097 -0.34925 2.2897 20.7146 -7.79249 -11.3384 1.72539 -1.08359 -6.54665 -25.5078 3.01414 -5.98846 -42.1632 22.4452 -7.07318 -5.3409 -19.1883 -7.72052 -10.3045 0.282078 -3.12762 24.9074 5.81959 15.053 56.0965 13.1276 -0.812574 2.63458 -4.07186 14.52 2.89074 0.11921 4.72193 11.0049 -6.86219 12.651 -3.74091 22.0408 -21.4225 10.05 -13.0416 1.15167 0.0589609 -2.75643 0.556572 -0.11076 -8.34629 -18.336 4.82715 17.8979 -3.81296 -17.5503 1.85499 0.286368 5.44151 -21.3407 -5.35216 
170.412 101.449 -181.991 -4.0729 -4.8055 48.0377 0 0 0 -1.35652 7.89487 0.982894 -7.456 -0.79525 2.28288 21.3279 -9.26493 -11.5338 1.42361 -0.710024 -6.76149 -24.7231 3.00463 -6.18752 -42.2521 22.2077 -6.84665 -5.29689 -19.4837 -7.67107 -9.90445 0.25786 -2.97526 24.8447 5.73392 14.8188 56.2839 12.7697 -1.18705 2.60326 -4.44145 14.8426 2.84916 0.137043 5.50642 12.091 -6.54852 13.0079 -3.55469 21.454 -22.389 10.2358 -12.5436 1.1279 0.123441 -2.62739 0.218565 -2.05491 -8.22438 -16.86 5.95905 16.0949 -9.27281 -15.3164 3.76604 0.506569 5.28707 -20.6086 -5.10367 
170.076 101.639 -181.693 -5.18524 -5.4796 49.021 0 0 0 -1.04891 8.63171 1.05377 -6.36814 -1.73022 2.14747 22.1161 -9.59436 -12.2012 0.650277 -0.654385 -7.12115 -24.5491 2.96979 -6.12714 -42.0302 22.2154 -6.57648 -5.35805 -20.2191 -8.08515 -10.3992 0.259508 -2.85115 24.3822 5.57565 14.5736 56.8365 12.8748 -1.78408 2.72015 -4.40455 14.3621 3.3805 0.16397 5.55228 13.7408 -7.38206 13.8503 -3.04196 21.7553 -24.5533 9.81417 -12.4706 1.07488 0.250028 -1.87807 -0.572471 -4.05032 -8.13034 -13.8789 6.27966 13.5461 -14.7274 -13.946 5.66549 0.693482 4.80017 -18.6174 -5.59326 
169.772 101.686 -181.343 -6.35074 -6.13705 49.9758 0 0 0 0.0707829 8.50672 1.07042 -6.2794 -1.85544 2.19612 22.9738 -9.03831 -12.9207 -0.0324495 -1.40656 -7.4016 -23.3789 2.80329 -5.92951 -42.494 21.8915 -6.56103 -5.31733 -20.1168 -8.70245 -10.2077 0.287992 -3.22359 24.6906 5.55653 14.3436 56.6574 13.3905 -2.61035 2.74657 -4.73277 15.0415 3.21297 0.150612 5.36627 15.4633 -8.88464 15.1143 -2.13165 23.2523 -26.3801 9.22213 -13.6561 1.10661 0.191834 -1.04463 -0.538222 -6.23183 -8.03004 -12.9662 4.71103 12.4104 -15.8678 -12.8176 6.24128 0.70173 4.76639 -18.4027 -5.2418 
169.933 101.569 -180.458 -6.35816 -10.1257 52.3072 0 0 0 3.8074 10.1167 0.474022 -6.35869 -1.2389 1.76239 22.929 -7.63613 -13.7988 -0.141991 -2.29739 -8.02427 -23.7955 2.78107 -5.73228 -41.3595 22.8793 -6.26582 -5.62294 -21.0194 -9.48762 -10.254 0.305747 -3.40671 23.6394 5.17391 13.68 57.329 12.3332 -3.70738 2.32703 -4.15068 15.7957 3.32777 0.129366 4.45123 19.7575 -7.8822 17.1974 -0.993942 26.323 -31.7499 10.1196 -15.3292 1.36533 0.209083 -0.635651 -0.717741 -6.48908 -2.27209 -12.4931 3.3415 8.92815 -15.348 -12.4766 5.21015 0.569915 4.1113 -15.5734 -5.67445 
168.886 101.243 -180.362 -7.25877 -7.58635 51.2667 0 0 0 0.69611 9.31907 1.79138 -4.75054 -2.78069 2.64251 23.8437 -6.56545 -14.5282 -0.0641023 -2.6459 -8.35888 -22.928 2.68002 -5.64771 -41.208 22.1397 -5.88543 -5.54097 -20.7104 -10.1077 -9.74141 0.303705 -3.56284 24.125 5.25726 13.6912 56.3577 11.5233 -5.02474 2.26446 -4.3396 15.8544 2.52287 0.129808 5.88989 18.7971 -11.0691 18.111 -0.580336 27.5936 -31.2408 9.72511 -15.5468 1.33072 0.214956 -0.487469 -0.779864 -12.0838 -6.26917 -13.9667 1.90564 12.1306 -9.92756 -18.1326 5.22598 0.834478 4.79728 -18.8953 -6.98868 
168.359 100.981 -179.698 -8.20151 -8.5691 52.002 0 0 0 1.3556 8.84112 1.93239 -3.62209 -2.41474 2.62477 24.788 -6.36073 -15.1753 -0.807737 -1.92187 -8.56035 -22.5687 2.55813 -5.33542 -40.3015 22.2692 -5.43437 -5.78517 -22.0542 -10.4885 -10.0137 0.332653 -3.79564 23.1159 5.02235 13.4612 56.439 9.96249 -5.72239 2.26703 -5.16933 16.6561 3.12043 0.0285424 1.04787 21.2241 -12.4129 19.0504 -0.0621326 29.6929 -33.197 10.0067 -16.4422 1.44935 -0.0477021 -0.80499 0.429261 -13.9589 -5.12109 -14.1155 0.569731 11.8338 -6.3283 -17.448 4.3526 0.668221 4.23297 -16.2724 -7.22944 
167.954 100.604 -178.812 -8.68953 -9.71023 52.881 0 0 0 1.51331 8.21157 1.93089 -1.97756 -1.63838 2.35007 25.5867 -5.62957 -15.4889 -0.297791 -2.25055 -8.64646 -21.8893 2.4468 -5.14328 -40.3501 19.8117 -4.20068 -5.13588 -19.7806 -10.9431 -10.039 0.311211 -3.54215 23.1818 5.10605 13.7039 55.3129 8.6634 -6.76614 1.94552 -4.35462 15.7946 3.02376 0.122427 4.63603 23.5448 -13.2931 18.6802 2.80294e-007 31.9168 -34.0169 9.34484 -17.8898 1.47405 0.117081 -0.252755 -0.424731 -15.7502 -3.27946 -14.6706 -0.172832 11.4747 -3.40384 -17.3314 5.4219 0.826947 4.70376 -18.2336 -5.81583 
167.288 99.995 -177.967 -9.16359 -10.7511 52.9189 0 0 0 2.16277 8.53106 2.19384 -1.36336 -1.92573 2.53036 26.8445 -5.84627 -16.0281 -0.423753 -1.5006 -8.85858 -21.4502 2.43175 -5.21744 -39.4615 19.5497 -2.85407 -5.21542 -20.4063 -11.2181 -10.1435 0.274645 -3.09383 23.1357 5.06127 13.5801 54.4707 7.36963 -7.98577 2.15051 -5.6869 17.7053 4.08498 0.127267 3.56742 26.134 -14.4063 18.7977 -2.02434e-007 34.9546 -34.3506 9.09138 -19.4623 1.56229 -0.013222 -0.464678 0.183973 -17.2299 -2.0619 -15.0693 -0.281678 11.5218 0.502803 -19.7611 6.43829 1.12256 5.1542 -20.716 -7.53584 
166.375 99.2867 -177.264 -10.2646 -10.4729 52.6379 0 0 0 1.51883 7.75459 2.60665 0.247947 -2.10967 2.64262 27.3888 -6.37941 -16.4412 -0.407146 -1.37479 -9.23557 -21.3086 2.37351 -5.05004 -38.2784 19.6508 -1.87126 -5.25897 -20.879 -11.4848 -11.5573 0.233503 -2.30704 21.2279 4.50637 12.7082 54.7501 10.4982 -7.62944 3.32091 -8.23724 17.0193 3.97521 0.136585 3.93416 27.7817 -16.9204 18.2224 3.02477e-007 37.7828 -33.3601 8.62945 -20.7274 1.58104 0.151584 -0.502667 -0.506369 -19.2654 -3.08897 -15.9025 -0.322961 12.8889 3.83043 -20.6562 5.98812 1.09222 5.07375 -20.4068 -7.78174 
165.583 98.6117 -176.556 -11.3878 -10.8405 52.868 0 0 0 1.16054 7.07682 2.62762 2.62348 -2.05904 2.29802 28.8853 -7.01571 -16.7064 -1.15729 -1.16472 -9.09584 -20.002 2.30834 -5.19907 -38.4777 18.8664 -0.535807 -5.05142 -20.2773 -11.931 -10.5113 0.231495 -2.51622 21.7328 4.57507 12.678 53.3969 9.68872 -8.7801 3.11508 -8.06106 17.8508 3.9891 0.19407 5.56825 29.8725 -19.1352 17.5526 1.79552e-006 40.4139 -32.9642 8.23643 -22.0319 1.60604 -0.0277808 -1.15483 0.446911 -20.2744 -3.88438 -16.5085 -0.420895 14.4528 6.25764 -18.7106 5.78941 0.954579 4.80456 -19.109 -7.77142 
164.515 97.7118 -175.526 -12.3768 -11.9199 53.3425 0 0 0 0.823195 6.64801 2.69148 5.23761 -1.4253 1.87972 29.5259 -9.02817 -16.7874 -1.74369 0.439798 -9.27921 -18.6863 2.25001 -5.38979 -39.026 17.7166 -0.485553 -4.67233 -19.6001 -10.9625 -10.025 0.240473 -2.7412 20.7108 4.09939 11.5206 53.162 9.35819 -8.48389 3.01393 -7.95214 18.933 3.8985 0.0919012 2.69978 32.9121 -21.2235 16.9182 1.63419e-008 43.5297 -32.9378 7.50269 -23.8238 1.58486 -0.0207146 -0.377426 0.191187 -19.9804 -3.29163 -16.4056 -0.447664 14.5292 7.51849 -15.7019 4.59528 0.633974 4.27154 -16.3598 -6.35548 
163.246 96.6137 -174.302 -13.1441 -12.8219 53.7075 0 0 0 -0.103312 7.1498 2.69636 8.13904 -2.11829 1.37479 30.2483 -9.46758 -17.1832 -1.20581 -0.0256342 -9.73859 -18.3655 2.20219 -5.30491 -38.6988 18.1469 0.2624 -4.62737 -19.6729 -11.0952 -10.3962 0.231601 -2.54539 20.3939 4.01709 11.3831 52.3174 7.14762 -9.81977 2.19167 -5.98144 19.3114 3.79698 0.161602 4.87236 36.03 -23.2097 16.837 -5.1081e-007 46.6517 -33.172 7.35983 -25.2708 1.65205 0.178892 -0.472867 -0.630149 -19.413 -2.76253 -16.072 -0.198427 14.1219 8.44299 -15.7638 6.68596 0.926635 5.26549 -20.5985 -5.40317 
161.893 95.7099 -173.202 -13.8389 -12.9792 53.6847 0 0 0 -0.740951 7.6309 2.62588 9.78767 -3.29302 1.10358 31.8737 -9.17003 -17.4345 -1.61607 -0.544761 -9.47905 -17.5335 2.24212 -5.74824 -38.3246 19.3004 0.977979 -5.20126 -21.7154 -10.6491 -9.99843 0.232111 -2.65299 21.5173 4.1389 11.2569 50.9425 6.48536 -11.2453 1.43661 -3.91508 20.7405 2.4943 0.116448 5.34504 38.3681 -24.9059 17.0473 -7.18516e-007 48.6103 -33.1155 6.95676 -26.02 1.60924 0.0959697 -0.926645 -0.154991 -19.5247 -3.68437 -15.9192 -0.664566 15.4244 11.5342 -11.4503 5.466 0.548416 4.21711 -16.0247 -5.4342 
160.309 94.5224 -171.941 -13.9846 -13.0477 53.576 0 0 0 -1.48161 8.41984 2.55974 11.1208 -4.28566 0.863832 33.133 -9.24382 -18.2953 -2.09387 0.0185254 -9.9307 -17.245 2.29279 -6.0613 -37.5838 19.648 0.604664 -5.08363 -21.4628 -9.16318 -10.2731 0.2197 -2.44372 22.2558 4.19756 11.1036 49.5596 5.35637 -12.0698 2.64912 -6.85075 21.5378 4.06502 0.239383 6.73754 40.7766 -26.2255 17.7316 1.01786e-006 50.8334 -33.8115 6.15871 -27.1256 1.48707 0.385003 -0.1098 -1.58666 -19.6258 -4.29124 -15.535 -1.06099 16.7634 13.8459 -9.55125 4.96594 0.415133 3.92757 -14.7214 -4.86343 
